<svg xmlns="http://www.w3.org/2000/svg" viewBox="0 0 16.25 16.25"><defs><style>.cls-1{fill:gray;stroke:gray;stroke-miterlimit:10;stroke-width:0.25px;}</style></defs><title>clock-icon</title><g id="Layer_2" data-name="Layer 2"><g id="ekskrusijas"><path class="cls-1" d="M8.13.13a8,8,0,1,0,8,8A8,8,0,0,0,8.13.13Zm.34,15.29V14a.35.35,0,0,0-.69,0v1.41A7.31,7.31,0,0,1,.83,8.47H2.24a.35.35,0,0,0,0-.69H.83a7.31,7.31,0,0,1,7-6.95V2.24a.35.35,0,0,0,.69,0V.83a7.31,7.31,0,0,1,7,7H14a.35.35,0,0,0,0,.69h1.41A7.3,7.3,0,0,1,8.47,15.42Z"/><path class="cls-1" d="M11.75,11.32,8.47,8V4.52a.35.35,0,0,0-.69,0V8.13a.37.37,0,0,0,.1.24l3.37,3.43a.35.35,0,0,0,.49,0A.34.34,0,0,0,11.75,11.32Z"/></g></g></svg>