<svg xmlns="http://www.w3.org/2000/svg" viewBox="0 0 18.38 18.38"><defs><style>.cls-1{fill:#a0c24c;}</style></defs><title>instagram-icon</title><g id="Layer_2" data-name="Layer 2"><g id="footer"><path class="cls-1" d="M13.3,0H5.07A5.07,5.07,0,0,0,0,5.07V13.3a5.08,5.08,0,0,0,5.07,5.08H13.3a5.09,5.09,0,0,0,5.08-5.08V5.07A5.08,5.08,0,0,0,13.3,0Zm3.44,13.3a3.44,3.44,0,0,1-3.44,3.44H5.07A3.44,3.44,0,0,1,1.63,13.3V5.07A3.44,3.44,0,0,1,5.07,1.63H13.3a3.44,3.44,0,0,1,3.44,3.44V13.3Z"/><path class="cls-1" d="M9.19,4.45a4.74,4.74,0,1,0,4.73,4.74A4.75,4.75,0,0,0,9.19,4.45Zm0,7.84a3.11,3.11,0,1,1,3.1-3.1A3.11,3.11,0,0,1,9.19,12.29Z"/><path class="cls-1" d="M14.12,3.07a1.21,1.21,0,0,0-.84.35,1.2,1.2,0,0,0,0,1.69,1.21,1.21,0,0,0,.84.35A1.23,1.23,0,0,0,15,5.11a1.2,1.2,0,0,0,0-1.69A1.23,1.23,0,0,0,14.12,3.07Z"/></g></g></svg>