<svg xmlns="http://www.w3.org/2000/svg" viewBox="0 0 16.96 13.78"><defs><style>.cls-1{fill:#a0c24c;}</style></defs><title>twitter-icon</title><g id="Layer_2" data-name="Layer 2"><g id="footer"><path class="cls-1" d="M5.33,13.78a9.83,9.83,0,0,0,9.9-9.9c0-.15,0-.3,0-.45A6.93,6.93,0,0,0,17,1.63a6.91,6.91,0,0,1-2,.55A3.49,3.49,0,0,0,16.49.25a7,7,0,0,1-2.21.85A3.48,3.48,0,0,0,8.35,4.27,9.86,9.86,0,0,1,1.18.63,3.49,3.49,0,0,0,2.26,5.28,3.47,3.47,0,0,1,.68,4.84v0A3.49,3.49,0,0,0,3.47,8.3a3.47,3.47,0,0,1-1.57.06,3.48,3.48,0,0,0,3.25,2.42A7,7,0,0,1,.83,12.27a7.55,7.55,0,0,1-.83,0,9.87,9.87,0,0,0,5.33,1.56"/></g></g></svg>