<svg xmlns="http://www.w3.org/2000/svg" viewBox="0 0 18.38 12.95"><defs><style>.cls-1{fill:#a0c24c;}</style></defs><title>youtube-icon</title><g id="Layer_2" data-name="Layer 2"><g id="footer"><path class="cls-1" d="M18,2A2.3,2.3,0,0,0,16.37.39,54.14,54.14,0,0,0,9.19,0,54.06,54.06,0,0,0,2,.39,2.33,2.33,0,0,0,.38,2,24.44,24.44,0,0,0,0,6.47a24.44,24.44,0,0,0,.38,4.45A2.33,2.33,0,0,0,2,12.56,54.06,54.06,0,0,0,9.19,13a54.14,54.14,0,0,0,7.18-.39A2.3,2.3,0,0,0,18,10.92a23.83,23.83,0,0,0,.39-4.45A23.83,23.83,0,0,0,18,2ZM7.31,9.21V3.74l4.8,2.73Z"/></g></g></svg>